<?xml version="1.0" encoding="UTF-8" standalone="no"?>
<!DOCTYPE svg PUBLIC "-//W3C//DTD SVG 1.1//EN" "http://www.w3.org/Graphics/SVG/1.1/DTD/svg11.dtd">
<svg width="100%" height="100%" viewBox="0 0 50 50" version="1.1" xmlns="http://www.w3.org/2000/svg" xmlns:xlink="http://www.w3.org/1999/xlink" xml:space="preserve" xmlns:serif="http://www.serif.com/" style="fill-rule:evenodd;clip-rule:evenodd;stroke-linejoin:round;stroke-miterlimit:1.41421;">
    <g transform="matrix(1.49167,0,0,1.4307,-12.2328,-10.6774)">
        <g>
            <path d="M27.123,30.247C27.279,30.559 27.185,30.993 27.03,31.275L25.75,34.176L25.282,31.242C25.249,30.964 25.531,30.837 25.72,30.71C25.72,30.681 25.654,30.681 25.623,30.65L25.188,30.65C25.188,30.274 25.374,29.963 25.719,29.773C26.059,29.587 26.56,29.62 26.843,29.9C26.967,29.965 27.063,30.087 27.123,30.247" style="fill:rgb(91,91,151);fill-rule:nonzero;"/>
            <path d="M24.75,30.15C24.844,30.338 24.906,30.559 24.877,30.804L24.346,34.146L24.219,33.864L22.91,30.931C22.783,30.559 22.91,30.15 23.159,29.901C23.437,29.621 23.907,29.558 24.252,29.68C24.472,29.808 24.624,29.965 24.75,30.15" style="fill:rgb(180,42,71);fill-rule:nonzero;"/>
            <path d="M29.027,31.556C29.216,31.868 29.15,32.306 28.965,32.586C28.838,32.772 28.652,32.864 28.466,33.024L25.75,34.895L25.78,34.802L27.217,31.556C27.436,31.18 27.841,30.965 28.279,31.024C28.559,31.057 28.871,31.275 29.027,31.556" style="fill:rgb(6,141,196);fill-rule:nonzero;"/>
            <path d="M22.847,31.522L24.346,34.865L24.312,34.865L21.286,32.771C20.974,32.522 20.85,32.117 20.944,31.741C21.006,31.463 21.256,31.179 21.568,31.056C22.036,30.897 22.598,31.087 22.847,31.522" style="fill:rgb(225,101,39);fill-rule:nonzero;"/>
            <path d="M29.808,33.895C29.965,34.207 29.902,34.646 29.682,34.925C29.462,35.177 29.184,35.33 28.838,35.33L25.624,35.33L28.339,33.459C28.592,33.304 28.997,33.271 29.31,33.396C29.496,33.459 29.715,33.676 29.808,33.895" style="fill:rgb(12,168,75);fill-rule:nonzero;"/>
            <path d="M20.255,33.895C20.099,34.207 20.162,34.646 20.381,34.925C20.601,35.177 20.88,35.33 21.226,35.33L24.439,35.33L21.724,33.459C21.475,33.304 21.07,33.271 20.757,33.396C20.567,33.459 20.352,33.676 20.255,33.895" style="fill:rgb(239,180,38);fill-rule:nonzero;"/>
        </g>
        <path d="M25.029,40.354L10.333,33.024C9.114,32.4 8.396,31.211 8.396,29.841L8.396,16.733C8.396,14.829 9.114,13.892 11.173,13.237C11.36,13.174 15.948,11.645 25.002,11.645C34.021,11.645 38.639,13.173 38.858,13.237C40.884,13.891 41.602,14.829 41.602,16.733L41.602,29.807C41.602,31.179 40.884,32.367 39.667,32.991L25.029,40.354ZM25.029,12.486C16.137,12.486 11.516,14.015 11.457,14.048C9.739,14.61 9.24,15.202 9.24,16.733L9.24,29.807C9.24,30.868 9.802,31.774 10.705,32.24L25.003,39.39L39.323,32.24C40.261,31.774 40.793,30.868 40.793,29.807L40.793,16.733C40.793,15.171 40.323,14.609 38.605,14.048C38.577,14.048 33.958,12.486 25.029,12.486Z" style="fill:rgb(6,141,196);fill-rule:nonzero;"/>
        <g>
            <path d="M21.255,19.664L24.126,19.664L24.126,15.92L24.096,15.92L14.45,15.92C12.765,15.92 11.331,16.95 11.081,18.637C11.051,18.824 11.051,19.01 11.051,19.228C11.051,19.228 11.051,20.508 11.081,20.634C11.268,22.348 12.643,23.442 14.294,23.505L20.849,23.505C21.036,23.505 21.161,23.661 21.161,23.818L21.161,25.005C21.161,25.191 21.005,25.317 20.849,25.317L13.921,25.317L13.921,24.443L11.017,24.443L11.017,28.187L20.693,28.187C22.564,28.187 24.126,26.938 24.126,24.909L24.126,23.88C24.126,23.691 24.096,23.472 24.096,23.286C23.847,21.631 22.442,20.601 20.786,20.572L14.327,20.572C14.138,20.572 14.015,20.415 14.015,20.259L14.015,19.073C14.015,18.887 14.17,18.761 14.327,18.761L21.255,18.761L21.255,19.664Z" style="fill-rule:nonzero;"/>
            <g>
                <path d="M25.937,24.535L25.937,19.198L25.937,24.535Z" style="fill-rule:nonzero;"/>
                <path d="M25.937,24.535L25.937,24.908L25.937,24.535Z" style="fill-rule:nonzero;"/>
                <path d="M36.142,25.315L29.217,25.315C29.028,25.315 28.904,25.16 28.904,25.003L28.904,23.816C28.904,23.627 29.057,23.503 29.217,23.503L35.77,23.503C37.424,23.41 38.796,22.347 38.986,20.632C38.986,20.506 39.012,19.226 39.012,19.226C39.012,19.04 38.986,18.821 38.986,18.635C38.704,16.947 37.298,15.918 35.613,15.918L29.37,15.918C27.5,15.918 25.937,17.167 25.937,19.197L25.937,24.906C25.937,26.935 27.499,28.184 29.37,28.184L39.046,28.184L39.046,24.44L36.175,24.44L36.175,25.314L36.142,25.314L36.142,25.315ZM29.12,20.634C28.933,20.634 28.808,20.478 28.808,20.322L28.808,19.136C28.808,18.946 28.965,18.824 29.12,18.824L35.735,18.824C35.861,18.824 35.955,18.887 36.017,18.98C36.047,19.01 36.047,19.073 36.047,19.136L36.047,20.322C36.047,20.508 35.894,20.634 35.735,20.634L29.12,20.634Z" style="fill-rule:nonzero;"/>
            </g>
        </g>
    </g>
</svg>
