<?xml version="1.0" encoding="UTF-8" standalone="no"?>
<!DOCTYPE svg PUBLIC "-//W3C//DTD SVG 1.1//EN" "http://www.w3.org/Graphics/SVG/1.1/DTD/svg11.dtd">
<svg width="100%" height="100%" viewBox="0 0 223 223" version="1.1" xmlns="http://www.w3.org/2000/svg" xmlns:xlink="http://www.w3.org/1999/xlink" xml:space="preserve" xmlns:serif="http://www.serif.com/" style="fill-rule:evenodd;clip-rule:evenodd;stroke-linejoin:round;stroke-miterlimit:1.41421;">
    <g transform="matrix(1.25,0,0,-1.25,0,222.97)">
        <clipPath id="_clip1">
            <path d="M3.074,89.19C3.074,41.629 41.63,3.075 89.187,3.075C136.749,3.075 175.3,41.629 175.3,89.19C175.3,136.748 136.749,175.302 89.187,175.302C41.63,175.302 3.074,136.748 3.074,89.19"/>
        </clipPath>
        <g clip-path="url(#_clip1)">
            <path d="M3.074,89.19C3.074,41.629 41.63,3.075 89.187,3.075C136.749,3.075 175.3,41.629 175.3,89.19C175.3,136.748 136.749,175.302 89.187,175.302C41.63,175.302 3.074,136.748 3.074,89.19" style="fill:url(#_Radial2);fill-rule:nonzero;"/>
        </g>
    </g>
    <g transform="matrix(1.25,0,0,-1.25,0,222.97)">
        <path d="M68.235,36.13L45.61,53.43C52.746,61.541 60.226,69.343 68.03,76.814C71.115,79.833 73.062,81.748 73.862,82.558C71.349,82.947 64.176,84.576 52.348,87.438C43.81,89.505 38.194,91.034 35.492,92.017L44.81,118.647C57.694,113.317 69.276,107.456 79.544,101.035C77.148,117.577 75.956,131.079 75.956,141.538L102.576,141.538C102.576,134.035 101.233,120.432 98.538,100.721C100.531,101.527 104.87,103.467 111.572,106.567C120.73,110.657 129.177,114.152 136.912,117.047L144.632,89.892C133.427,87.399 120.46,84.952 105.724,82.558L123.804,62.016C127.414,57.862 130.274,54.464 132.388,51.836L109.23,36.66L89.12,70.566C83.044,59.79 76.09,48.308 68.234,36.13" style="fill:white;fill-rule:nonzero;"/>
    </g>
    <defs>
        <radialGradient id="_Radial2" cx="0" cy="0" r="1" gradientUnits="userSpaceOnUse" gradientTransform="matrix(86.1131,0,0,-86.1131,89.187,122.938)"><stop offset="0" style="stop-color:rgb(255,161,0);stop-opacity:1"/><stop offset="1" style="stop-color:rgb(255,90,0);stop-opacity:1"/></radialGradient>
    </defs>
</svg>
